<svg xmlns="http://www.w3.org/2000/svg" xmlns:xlink="http://www.w3.org/1999/xlink" width="175" height="50" viewBox="0 0 136 26"><defs><style>.cls-1{fill:url(#未命名的渐变_10);}.cls-2{fill:url(#未命名的渐变_10-2);}.cls-3{fill:url(#未命名的渐变_10-3);}.cls-4{fill:url(#未命名的渐变_10-4);}.cls-5{fill:url(#未命名的渐变_10-5);}.cls-6{fill:url(#未命名的渐变_10-6);}.cls-7{fill:url(#未命名的渐变_10-7);}.cls-8{fill:url(#未命名的渐变_10-8);}.cls-9{fill:url(#未命名的渐变_10-9);}.cls-10{fill:url(#未命名的渐变_10-10);}.cls-11{fill:#fff;}</style><linearGradient id="未命名的渐变_10" x1="-175.54" y1="50.72" x2="-173.96" y2="49.04" gradientTransform="matrix(9.98, 0, 0, -10.61, 1770.66, 531.26)" gradientUnits="userSpaceOnUse"><stop offset="0" stop-color="#ea3671"/><stop offset="0.04" stop-color="#e03a75"/><stop offset="0.39" stop-color="#82619b"/><stop offset="0.69" stop-color="#3c7eb8"/><stop offset="0.89" stop-color="#1190c9"/><stop offset="1" stop-color="#0197d0"/></linearGradient><linearGradient id="未命名的渐变_10-2" x1="-177.58" y1="50.65" x2="-175.98" y2="49.51" gradientTransform="matrix(11.29, 0, 0, -8.09, 2017.18, 411.06)" xlink:href="#未命名的渐变_10"/><linearGradient id="未命名的渐变_10-3" x1="-179.67" y1="50.94" x2="-178.29" y2="49.59" gradientTransform="matrix(12.91, 0, 0, -12.73, 2330.14, 647.65)" xlink:href="#未命名的渐变_10"/><linearGradient id="未命名的渐变_10-4" x1="-182.68" y1="50.82" x2="-181.59" y2="49.93" gradientTransform="matrix(16.46, 0, 0, -13.45, 3011.71, 693.7)" xlink:href="#未命名的渐变_10"/><linearGradient id="未命名的渐变_10-5" x1="-173.52" y1="49.58" x2="-171.94" y2="47.9" gradientTransform="matrix(9.98, 0, 0, -10.61, 1737.11, 531.26)" xlink:href="#未命名的渐变_10"/><linearGradient id="未命名的渐变_10-6" x1="-176.17" y1="50.16" x2="-174.57" y2="49.01" gradientTransform="matrix(11.29, 0, 0, -8.09, 1993.66, 411.06)" xlink:href="#未命名的渐变_10"/><linearGradient id="未命名的渐变_10-7" x1="-178.47" y1="50.22" x2="-177.08" y2="48.87" gradientTransform="matrix(12.91, 0, 0, -12.73, 2305.18, 647.65)" xlink:href="#未命名的渐变_10"/><linearGradient id="未命名的渐变_10-8" x1="-181.92" y1="50.57" x2="-180.82" y2="49.68" gradientTransform="matrix(16.46, 0, 0, -13.45, 2993.99, 693.7)" xlink:href="#未命名的渐变_10"/><linearGradient id="未命名的渐变_10-9" x1="-170.01" y1="53.59" x2="-167.65" y2="51.6" gradientTransform="matrix(7.51, 0, 0, -6.21, 1276.87, 346.88)" xlink:href="#未命名的渐变_10"/><linearGradient id="未命名的渐变_10-10" x1="-183.22" y1="49.37" x2="-182.71" y2="48.67" gradientTransform="matrix(18.98, 0, 0, -25.77, 3488.61, 1273.63)" xlink:href="#未命名的渐变_10"/></defs><title></title><g id="图层_2" data-name="图层 2"><g id="图层_1-2" data-name="图层 1"><g id="资源-3备份-7"><path id="路径" class="cls-1" d="M27.75,7.42A3.86,3.86,0,1,0,23,1.56a13.77,13.77,0,0,1,4.8,5.86Z"/><path id="路径-2" data-name="路径" class="cls-2" d="M19.08,7.88a8.69,8.69,0,0,1,3.19-5.54A13.17,13.17,0,0,1,26.8,7.88Z"/><path id="路径-3" data-name="路径" class="cls-3" d="M19,8.92h8.15a12.68,12.68,0,0,1,.55,5.83h-.07a5.71,5.71,0,0,1-4-1.67,9.59,9.59,0,0,1-.5.94,6.73,6.73,0,0,0,4.43,1.75A12.75,12.75,0,0,1,27,17.63a8.58,8.58,0,0,1-8-8.5C19,9.06,19,9,19,8.92Z"/><path id="路径-4" data-name="路径" class="cls-4" d="M15.32,18.7a9.69,9.69,0,0,0,5.88-2.39,9.7,9.7,0,0,0,5.38,2.42,13.12,13.12,0,0,1-7.92,6.78,8.64,8.64,0,0,1-3.34-6.81Z"/><path id="路径-5" data-name="路径" class="cls-5" d="M2,7.42A3.86,3.86,0,1,1,6.83,1.56,13.76,13.76,0,0,0,2,7.42Z"/><path id="路径-6" data-name="路径" class="cls-6" d="M10.71,7.88A8.69,8.69,0,0,0,7.51,2.34,13.17,13.17,0,0,0,3,7.88Z"/><path id="路径-7" data-name="路径" class="cls-7" d="M10.76,8.92H2.61a12.68,12.68,0,0,0-.56,5.83h.07a5.71,5.71,0,0,0,4-1.67,9.58,9.58,0,0,0,.5.94,6.73,6.73,0,0,1-4.43,1.75,12.75,12.75,0,0,0,.56,1.87,8.58,8.58,0,0,0,8-8.5C10.77,9.06,10.76,9,10.76,8.92Z"/><path id="路径-8" data-name="路径" class="cls-8" d="M14.46,18.7a9.69,9.69,0,0,1-5.88-2.39A9.7,9.7,0,0,1,3.2,18.72a13.12,13.12,0,0,0,7.92,6.78,8.64,8.64,0,0,0,3.34-6.81Z"/><path id="路径-9" data-name="路径" class="cls-9" d="M14.91,21.75a9.77,9.77,0,0,1-2.57,4,12.28,12.28,0,0,0,5.14,0,9.77,9.77,0,0,1-2.57-4Z"/><path id="路径-10" data-name="路径" class="cls-10" d="M21.42,1.74A12.9,12.9,0,0,0,15.47,0V5h-1V0a12.9,12.9,0,0,0-6,1.74,9.67,9.67,0,0,1,.9,13.79,8.51,8.51,0,0,0,11.19,0,9.67,9.67,0,0,1,.9-13.79Z"/></g><path id="COINTIGER" class="cls-11" d="M42.93,20.33a9,9,0,0,0,3.75-.67l-.36-1.47a7.36,7.36,0,0,1-3,.59c-3.43,0-5.43-2.21-5.43-5.7,0-3.73,2.21-5.85,5.54-5.85a6.5,6.5,0,0,1,2.84.59l.46-1.49a7.68,7.68,0,0,0-3.37-.63,7,7,0,0,0-7.41,7.45C35.95,17.81,38.94,20.33,42.93,20.33Zm11.6,0c3.62,0,6.59-2.61,6.59-7.47,0-4.23-2.5-7.2-6.4-7.2s-6.57,2.95-6.57,7.45C48.15,17.41,50.76,20.33,54.53,20.33Zm.11-1.49c-2.9,0-4.55-2.71-4.55-5.77s1.52-5.91,4.57-5.91,4.52,2.95,4.52,5.79C59.18,16.17,57.54,18.84,54.64,18.84ZM65.33,20.1V5.92H63.48V20.1Zm4.92,0V14c0-2.36,0-4.06-.13-5.85l.06,0a41.27,41.27,0,0,0,2.63,4.74l4.5,7.2h1.85V5.92H77.45v5.94c0,2.21,0,3.94.21,5.83l-.06,0a39.78,39.78,0,0,0-2.53-4.61L70.55,5.92h-2V20.1Zm17.87,0V8.61H92V5.92H81.09V8.61h3.83V20.1Zm8.8,0V5.92h-3.2V20.1Zm9.89.15a15.87,15.87,0,0,0,4.74-.8V12h-5.28v2.5h2.19v3a4.92,4.92,0,0,1-1.56.19A4.27,4.27,0,0,1,102.41,13c0-3.09,2-4.59,4.71-4.59a7.43,7.43,0,0,1,3.28.61l.67-2.59a10.25,10.25,0,0,0-3.94-.67c-4.65,0-8.08,2.69-8.1,7.41a7.11,7.11,0,0,0,2,5.18A8,8,0,0,0,106.81,20.25Zm16.29-.15V17.47h-5.83V14.1h5.22V11.5h-5.22V8.55h5.54V5.92h-8.73V20.1Zm5.37,0V14.53h.95c1.33,0,1.94.48,2.34,2.27a19,19,0,0,0,1,3.3H136c-.27-.55-.69-2.4-1.14-4A3.54,3.54,0,0,0,133,13.45v-.06a3.76,3.76,0,0,0,2.5-3.47,3.6,3.6,0,0,0-1.33-3c-1-.8-2.48-1.12-4.59-1.12a28,28,0,0,0-4.27.29v14Zm1.26-7.89h-1.26V8.32a6.38,6.38,0,0,1,1.45-.11c1.47,0,2.36.67,2.36,2S131.33,12.21,129.73,12.21Z"/></g></g></svg>
