<?xml version="1.0" encoding="utf-8"?>
<!-- Generator: Adobe Illustrator 25.2.1, SVG Export Plug-In . SVG Version: 6.00 Build 0)  -->
<svg version="1.1" id="Layer_1" xmlns="http://www.w3.org/2000/svg" xmlns:xlink="http://www.w3.org/1999/xlink" x="0px" y="0px"
	 viewBox="0 0 841.89 595.28" style="enable-background:new 0 0 841.89 595.28;" xml:space="preserve">
<style type="text/css">
	.st0{fill:#FFFFFF;}
</style>
<path class="st0" d="M384.85,337.69c5.65-0.69,16.3-2.16,26-4.34c-2.38-2.18-4.47-4.73-6.25-7.67c-4.73,0.86-16.19,2.8-24.95,3.15
	c0.24,0.5,0.49,1,0.74,1.49C381.72,332.93,383.21,335.38,384.85,337.69z"/>
<path class="st0" d="M495.2,283.16c-3.85-12.3-40.09-11.9-80.95,0.89c-40.86,12.79-70.86,33.13-67,45.43
	c3.72,11.88,37.64,11.91,76.75,0.38c-1.52-1.9-2.43-4.31-2.43-6.93c0-0.49,0.04-0.98,0.1-1.46c-32.04,9.34-59.44,9.95-62.21,1.09
	c-2.9-9.27,22.25-25.4,56.17-36.03c33.93-10.62,63.79-11.72,66.69-2.44c2.47,7.9-15.42,20.78-41.75,30.99
	c2.01,2.01,3.25,4.79,3.25,7.85c0,0.07,0,0.14-0.01,0.21C476.41,310.55,498.54,293.83,495.2,283.16z"/>
<path class="st0" d="M430.14,314.48c-4.67,1.46-7.27,6.43-5.81,11.11c1.21,3.85,4.8,6.3,8.65,6.21l-0.7-6.08
	c-1.04-0.21-1.92-1-2.16-2.14c-0.27-1.3,0.45-2.63,1.69-3.11c1.5-0.59,3.17,0.22,3.64,1.74c0.31,1,0.02,2.04-0.67,2.74l2.74,5.48
	c3.32-2.09,4.95-6.22,3.72-10.14C439.79,315.62,434.82,313.02,430.14,314.48z"/>
<path class="st0" d="M473.61,294.35c0-5.34-4.33-9.67-9.67-9.67h-9.88h0c0,0-17.69,0.19-25.53,4.87c0,0,1.01-2.83,3.29-4.87h-3.72
	c-6.88,0-12.45,5.58-12.45,12.45v5.85h28.08c0,0,0,0,0,0.01h8.63v3.95C456.71,304.83,468.06,298.94,473.61,294.35z"/>
<path class="st0" d="M454.38,234.36c-6.59-1.34-12.15-2.01-16.67-2.01c-12.33,0-23.44,2.81-33.33,8.42
	c-9.89,5.62-17.61,13.4-23.17,23.35c-0.44,0.79-0.86,1.6-1.27,2.41c4.27-1.93,8.1-1.44,8.1-1.44c-4.93,1.26-9.7,7.59-12,11.06
	c-2.11,6.72-3.17,13.92-3.17,21.59c0,9.31,1.51,17.96,4.54,25.94c5.36-0.13,15.79-0.57,25.01-2.04c-0.08-0.18-0.17-0.36-0.25-0.54
	c-3.05-6.78-4.58-14.62-4.58-23.53c0-9.77,1.8-18.04,5.4-24.82c3.6-6.78,8.45-11.87,14.56-15.29c4.47-2.5,9.34-4.09,14.6-4.76
	l4.14-0.76c3.24-1,7.1-2.68,10.83-5.55c0,0-1.64,3.08-4.55,6.07c2.12,0.13,4.01,0.36,5.67,0.69c2.75,0.55,6.44,1.5,11.08,2.84
	c-0.07-0.07,0.48,0.08,1.94,0.49c1.75,0.5,3.59-0.37,4.33-2.03l6.18-14.03C466.77,237.72,460.97,235.7,454.38,234.36z"/>
<path class="st0" d="M452.37,310.08v26.54v3.41v2.39c-6.92,3.79-18,2.6-18,2.6c4.65-0.66,8.56-2.23,11.54-3.85
	c-4.08,0.58-7.97,0.88-11.67,0.88c-7.21,0-13.58-1.8-19.14-5.4c-4.22-2.74-7.72-6.39-10.5-10.96c-4.73,0.86-16.19,2.8-24.95,3.15
	c0.24,0.5,0.49,1,0.74,1.49c1.36,2.65,2.88,5.14,4.55,7.48c0.19-0.02,6.49-0.54,11.78-1.68c0,0-4.33,2.16-10.17,3.83
	c4.22,5.36,9.34,9.87,15.36,13.53c9.34,5.68,20.3,8.52,32.87,8.52c7.33,0,14.35-0.85,21.06-2.56c6.71-1.71,12.64-3.91,17.77-6.59
	V297.7C468.38,301.76,461.09,306.02,452.37,310.08z"/>
<path class="st0" d="M402.35,219.24C402.35,219.24,402.36,219.25,402.35,219.24c0.05,0.04,0.09,0.08,0.13,0.11
	c0.29,0.25,0.61,0.46,1.06,0.11c0,0,0,0,0,0c1.71-1.38,3.23-2.12,3.23-2.12s-0.82,1.47-2.3,3.1c0,0,0,0,0,0
	c-0.37,0.43-0.19,0.76,0.05,1.06c0.03,0.04,0.07,0.08,0.1,0.12c0,0,0,0.01,0.01,0.01l0,0c1.27,1.61,1.94,3,1.94,3
	s-1.35-0.75-2.89-2.11l0,0c0,0,0-0.01-0.01-0.01c-0.04-0.04-0.08-0.07-0.12-0.11c-0.29-0.25-0.61-0.46-1.06-0.11c0,0,0,0,0,0
	c-1.71,1.38-3.23,2.12-3.23,2.12s0.82-1.47,2.3-3.1c0,0,0,0,0,0c0.37-0.43,0.19-0.76-0.05-1.06c-0.03-0.04-0.07-0.08-0.1-0.13
	c0,0,0,0-0.01,0c-1.26-1.61-1.94-3-1.94-3S400.81,217.89,402.35,219.24z M466.9,362.19c0,0,0.34,1.5,1.22,3.36c0,0,0,0.01,0,0.01
	c0.02,0.05,0.05,0.1,0.07,0.15c0.16,0.35,0.26,0.71-0.2,1.04c0,0,0,0,0,0c-1.8,1.25-2.94,2.5-2.94,2.5s1.65-0.38,3.62-1.34
	c0,0,0,0,0,0c0.51-0.24,0.78,0.03,1.01,0.34c0.03,0.04,0.06,0.09,0.09,0.13c0,0,0.01,0.01,0.01,0.01c1.2,1.67,2.34,2.71,2.34,2.71
	s-0.34-1.5-1.22-3.36h0c0,0,0-0.01-0.01-0.01c-0.02-0.05-0.04-0.09-0.07-0.15c-0.16-0.35-0.27-0.71,0.19-1.04c0,0,0,0,0,0
	c1.81-1.25,2.94-2.5,2.94-2.5s-1.65,0.38-3.62,1.34c0,0,0,0,0,0c-0.51,0.24-0.78-0.03-1-0.34c-0.03-0.04-0.07-0.09-0.1-0.13
	c0,0,0,0-0.01-0.01C468.05,363.22,466.9,362.19,466.9,362.19z M480.92,232.95c0,0-0.53,1.45-0.8,3.48c0,0,0,0.01,0,0.01
	c-0.01,0.05-0.01,0.11-0.02,0.16c-0.06,0.38-0.17,0.74-0.73,0.77c0,0,0,0,0,0c-2.19,0.07-3.83,0.51-3.83,0.51s1.59,0.58,3.77,0.84
	c0,0,0,0,0,0c0.56,0.08,0.64,0.45,0.66,0.84c0,0.05,0,0.11,0.01,0.16c0,0,0,0.01,0,0.01c0.1,2.05,0.5,3.54,0.5,3.54
	s0.53-1.45,0.8-3.49v0c0,0,0-0.01,0-0.01c0.01-0.05,0.01-0.1,0.02-0.16c0.05-0.38,0.16-0.75,0.73-0.77c0,0,0,0,0,0
	c2.2-0.07,3.83-0.51,3.83-0.51s-1.59-0.57-3.77-0.84c0,0,0,0,0,0c-0.56-0.08-0.64-0.45-0.66-0.83c0-0.05-0.01-0.11-0.01-0.16
	c0,0,0,0,0-0.01C481.32,234.44,480.92,232.95,480.92,232.95z M334.82,321.4c-0.37,0.55-0.8,0.44-1.21,0.25
	c-0.06-0.02-0.11-0.05-0.17-0.08c0,0-0.01,0-0.01,0c-2.19-0.96-3.95-1.32-3.95-1.32s1.24,1.3,3.21,2.64c0,0,0.01,0,0.01,0.01
	c0.05,0.03,0.11,0.07,0.16,0.1c0.37,0.26,0.69,0.56,0.43,1.16c0,0,0,0,0,0c-1.06,2.33-1.46,4.25-1.46,4.25s1.42-1.35,2.83-3.49
	c0,0,0,0,0,0c0.38-0.55,0.8-0.43,1.21-0.25c0.06,0.02,0.11,0.05,0.17,0.08c0,0,0.01,0,0.01,0l0,0c2.19,0.96,3.95,1.32,3.95,1.32
	s-1.24-1.3-3.22-2.65l0,0c-0.01,0-0.01,0-0.01-0.01c-0.05-0.04-0.1-0.07-0.15-0.1c-0.37-0.25-0.69-0.56-0.43-1.16c0,0,0,0,0,0
	c1.06-2.32,1.46-4.25,1.46-4.25S336.23,319.27,334.82,321.4C334.83,321.4,334.82,321.4,334.82,321.4z M446.2,221.81
	c0.94-0.55,1.26-1.77,0.71-2.71c-0.55-0.94-1.77-1.26-2.71-0.71c-0.94,0.55-1.26,1.77-0.71,2.71
	C444.04,222.05,445.26,222.36,446.2,221.81z M514.16,302.03c2.07-1.21,2.76-3.86,1.55-5.93c-1.21-2.07-3.87-2.76-5.93-1.55
	c-2.06,1.21-2.76,3.86-1.55,5.93C509.44,302.55,512.1,303.24,514.16,302.03z M502.04,289.9c1.03-0.61,1.38-1.93,0.78-2.96
	c-0.61-1.03-1.93-1.38-2.96-0.78c-1.03,0.6-1.38,1.93-0.77,2.96C499.68,290.16,501,290.51,502.04,289.9z M495.07,335.48
	c-0.94,0.55-1.26,1.77-0.71,2.71c0.55,0.94,1.77,1.26,2.71,0.71c0.94-0.55,1.26-1.77,0.71-2.71
	C497.22,335.25,496.01,334.93,495.07,335.48z M342.55,310.32c-0.94,0.55-1.26,1.77-0.71,2.71c0.55,0.94,1.77,1.26,2.71,0.71
	c0.94-0.55,1.26-1.77,0.71-2.71C344.71,310.08,343.49,309.76,342.55,310.32z"/>
</svg>
